<?xml version="1.0" encoding="utf-8"?>
<!-- Generator: Adobe Illustrator 16.0.0, SVG Export Plug-In . SVG Version: 6.00 Build 0)  -->
<!DOCTYPE svg PUBLIC "-//W3C//DTD SVG 1.1//EN" "http://www.w3.org/Graphics/SVG/1.1/DTD/svg11.dtd">
<svg version="1.1" id="Capa_1" xmlns="http://www.w3.org/2000/svg" xmlns:xlink="http://www.w3.org/1999/xlink" x="0px" y="0px"
	 width="576px" height="288px" viewBox="0 0 576 288" enable-background="new 0 0 576 288" xml:space="preserve">
<g>
	<path fill="#FFFFFF" d="M305.402,174.395v-20.441c0-8.061-6.558-14.618-14.618-14.618c-8.06,0-14.618,6.558-14.618,14.618v18.456
		c0,22.242-8.194,43.597-23.074,60.129l-20.515,22.795c-1.724,1.915-1.568,4.864,0.347,6.589c1.915,1.724,4.864,1.568,6.588-0.348
		l20.515-22.795c16.424-18.248,25.469-41.818,25.469-66.37v-18.456c0-2.916,2.372-5.288,5.287-5.288
		c2.915,0,5.287,2.372,5.287,5.288v20.441c0,27.371-10.14,53.599-28.552,73.852l-19.998,21.998c-1.733,1.906-1.592,4.857,0.314,6.59
		c0.894,0.813,2.017,1.213,3.137,1.213c1.269,0,2.533-0.514,3.453-1.526l19.997-21.997
		C294.4,232.549,305.402,204.092,305.402,174.395z"/>
	<path fill="#FFFFFF" d="M325.307,153.953c0-19.037-15.486-34.523-34.522-34.523s-34.522,15.487-34.522,34.523v18.456
		c0,17.317-6.38,33.942-17.964,46.813l-14.584,16.205c-1.724,1.916-1.568,4.865,0.347,6.59c1.916,1.723,4.864,1.566,6.589-0.348
		l14.584-16.205c13.129-14.588,20.359-33.43,20.359-53.056v-18.456c0-13.892,11.301-25.193,25.192-25.193
		c13.891,0,25.191,11.301,25.191,25.193v20.441c0,32.333-11.978,63.316-33.728,87.241l-16.873,18.562
		c-1.733,1.905-1.593,4.857,0.313,6.59c0.894,0.812,2.017,1.213,3.136,1.213c1.269,0,2.533-0.514,3.454-1.527l16.873-18.561
		c23.314-25.646,36.154-58.857,36.154-93.518V153.953z"/>
	<path fill="#FFFFFF" d="M345.212,153.953c0-30.012-24.416-54.428-54.428-54.428s-54.428,24.416-54.428,54.428v18.456
		c0,12.392-4.565,24.287-12.854,33.497l-13.132,14.592c-1.724,1.915-1.568,4.865,0.347,6.589c1.915,1.724,4.865,1.567,6.588-0.347
		l13.132-14.592c9.833-10.926,15.249-25.039,15.249-39.739v-18.456c0-24.868,20.23-45.098,45.097-45.098
		c24.867,0,45.097,20.23,45.097,45.098v20.441c0,37.296-13.816,73.034-38.904,100.631l-4.67,5.137
		c-1.732,1.906-1.592,4.857,0.314,6.59c0.895,0.812,2.018,1.213,3.137,1.213c1.269,0,2.532-0.514,3.453-1.527l4.669-5.137
		c26.653-29.317,41.331-67.283,41.331-106.906L345.212,153.953L345.212,153.953z"/>
	<path fill="#FFFFFF" d="M216.452,153.953c0,2.576,2.089,4.664,4.665,4.664c2.577,0,4.666-2.088,4.666-4.664
		c0-15.71,5.703-30.885,16.06-42.731c10.26-11.736,24.342-19.411,39.652-21.61c2.55-0.367,4.321-2.731,3.954-5.281
		c-0.366-2.55-2.733-4.318-5.281-3.954c-17.517,2.517-33.622,11.29-45.35,24.705C222.974,118.627,216.452,135.984,216.452,153.953z"
		/>
	<path fill="#FFFFFF" d="M225.782,172.409c0-2.577-2.089-4.665-4.666-4.665c-2.576,0-4.665,2.088-4.665,4.665
		c0,7.466-2.75,14.632-7.744,20.181l-11.681,12.98c-1.724,1.914-1.568,4.863,0.347,6.588c0.892,0.803,2.007,1.197,3.119,1.197
		c1.277,0,2.549-0.521,3.469-1.545l11.681-12.979C222.181,191.567,225.782,182.184,225.782,172.409z"/>
	<path fill="#FFFFFF" d="M355.96,214.055c-2.493-0.649-5.042,0.841-5.694,3.332c-1.723,6.581-3.865,13.123-6.37,19.443
		c-0.949,2.396,0.224,5.107,2.618,6.057c0.564,0.223,1.146,0.328,1.719,0.328c1.855,0,3.612-1.116,4.338-2.947
		c2.643-6.672,4.904-13.574,6.722-20.519C359.943,217.258,358.451,214.707,355.96,214.055z"/>
	<path fill="#FFFFFF" d="M340.432,98.674c-1.916-1.724-4.866-1.565-6.589,0.35c-1.722,1.916-1.565,4.866,0.351,6.588
		c13.723,12.336,21.592,29.956,21.592,48.341v20.441c0,7.759-0.534,15.577-1.59,23.238c-0.352,2.553,1.433,4.907,3.984,5.259
		c0.217,0.03,0.431,0.044,0.643,0.044c2.295,0,4.294-1.693,4.615-4.029c1.113-8.082,1.679-16.329,1.679-24.512v-20.441
		C365.117,132.925,356.119,112.776,340.432,98.674z"/>
	<path fill="#FFFFFF" d="M318.622,95.218c0.647,0.309,1.329,0.454,2.002,0.454c1.743,0,3.417-0.982,4.216-2.661
		c1.107-2.326,0.119-5.11-2.207-6.217c-6.721-3.201-13.865-5.359-21.232-6.417c-2.555-0.364-4.915,1.404-5.281,3.954
		c-0.367,2.55,1.403,4.915,3.953,5.281C306.51,90.537,312.75,92.422,318.622,95.218z"/>
	<path fill="#FFFFFF" d="M290.784,59.715c-1.745,0-3.511,0.049-5.248,0.145c-2.573,0.142-4.543,2.342-4.401,4.915
		c0.143,2.573,2.341,4.554,4.915,4.401c1.567-0.086,3.159-0.13,4.733-0.13c46.818,0,84.908,38.088,84.908,84.906v20.443
		c0,2.576,2.088,4.665,4.664,4.665c2.577,0,4.666-2.089,4.666-4.665v-20.441C385.021,101.99,342.746,59.715,290.784,59.715z"/>
	<path fill="#FFFFFF" d="M239.775,85.027c0.918,0,1.847-0.271,2.659-0.835c7.762-5.397,16.286-9.427,25.337-11.979
		c2.48-0.699,3.924-3.277,3.225-5.756s-3.277-3.921-5.756-3.225c-10.052,2.834-19.517,7.308-28.132,13.298
		c-2.115,1.471-2.638,4.378-1.167,6.493C236.847,84.329,238.299,85.027,239.775,85.027z"/>
	<path fill="#FFFFFF" d="M205.877,172.409v-18.456c0-21.703,8.219-42.372,23.143-58.201c1.768-1.875,1.681-4.827-0.194-6.595
		c-1.875-1.768-4.828-1.68-6.595,0.194c-16.563,17.567-25.684,40.51-25.684,64.602v18.456c0,2.54-0.936,4.978-2.634,6.864
		l-5.752,6.392c-1.724,1.915-1.568,4.864,0.347,6.589c0.892,0.803,2.007,1.197,3.12,1.197c1.276,0,2.548-0.521,3.469-1.543
		l5.752-6.393C204.091,181.912,205.877,177.258,205.877,172.409z"/>
	<path fill="#FFFFFF" d="M399.002,117.628c-5.117-15.206-13.248-28.944-24.17-40.832c-1.743-1.897-4.694-2.022-6.592-0.279
		c-1.896,1.744-2.021,4.695-0.279,6.593c10.031,10.919,17.5,23.534,22.198,37.493c0.655,1.949,2.474,3.179,4.421,3.179
		c0.493,0,0.995-0.079,1.488-0.245C398.51,122.715,399.823,120.07,399.002,117.628z"/>
	<path fill="#FFFFFF" d="M327.652,45.919c-2.436-0.834-5.09,0.465-5.924,2.904c-0.834,2.438,0.466,5.09,2.903,5.923
		c10.287,3.52,19.946,8.62,28.707,15.158c0.838,0.625,1.816,0.926,2.786,0.926c1.422,0,2.827-0.647,3.743-1.875
		c1.542-2.064,1.116-4.988-0.948-6.529C349.379,55.309,338.859,49.754,327.652,45.919z"/>
	<path fill="#FFFFFF" d="M218.296,78.318c19.625-18.815,45.368-29.178,72.488-29.178c5.036,0,10.101,0.362,15.051,1.077
		c2.552,0.372,4.916-1.401,5.284-3.951s-1.4-4.916-3.951-5.284c-5.391-0.777-10.904-1.172-16.384-1.172
		c-29.538,0-57.575,11.284-78.945,31.774c-21.303,20.426-33.762,47.837-35.081,77.184c-0.116,2.574,1.877,4.755,4.45,4.87
		c0.072,0.004,0.143,0.005,0.213,0.005c2.48,0,4.545-1.953,4.657-4.455C187.29,122.246,198.731,97.078,218.296,78.318z"/>
	<path fill="#FFFFFF" d="M290.784,19.905c-10.433,0-20.829,1.209-30.899,3.594c-2.507,0.593-4.058,3.108-3.464,5.614
		c0.594,2.507,3.108,4.059,5.615,3.464c9.367-2.217,19.039-3.342,28.749-3.342c34.209,0,66.142,13.629,89.915,38.376
		c0.916,0.954,2.139,1.434,3.365,1.434c1.162,0,2.326-0.432,3.23-1.301c1.858-1.785,1.918-4.739,0.133-6.596
		c-12.387-12.894-26.937-23.037-43.244-30.146C327.291,23.638,309.325,19.905,290.784,19.905z"/>
	<path fill="#FFFFFF" d="M185.991,78.005c0.854,0.668,1.867,0.992,2.874,0.992c1.385,0,2.756-0.614,3.676-1.789
		c13.296-16.982,30.8-30.303,50.619-38.523c2.38-0.987,3.51-3.716,2.522-6.096s-3.718-3.511-6.097-2.522
		c-21.299,8.833-40.107,23.146-54.391,41.389C183.606,73.485,183.963,76.417,185.991,78.005z"/>
	<path fill="#FFFFFF" d="M226.098,24.088c0.68,0,1.372-0.149,2.024-0.465c19.643-9.484,40.725-14.292,62.662-14.292
		c11.432,0,22.817,1.345,33.839,3.997c2.504,0.601,5.024-0.939,5.627-3.444c0.604-2.505-0.939-5.024-3.445-5.627
		C315.07,1.432,302.951,0,290.784,0c-23.354,0-45.801,5.121-66.718,15.221c-2.32,1.12-3.293,3.909-2.173,6.229
		C222.697,23.117,224.363,24.088,226.098,24.088z"/>
	<path fill="#FFFFFF" d="M344.122,19.521c4.81,1.916,9.569,4.117,14.149,6.544c0.695,0.37,1.443,0.544,2.18,0.544
		c1.672,0,3.289-0.901,4.126-2.482c1.206-2.277,0.339-5.1-1.938-6.307c-4.874-2.583-9.943-4.928-15.064-6.967
		c-2.395-0.954-5.107,0.215-6.061,2.608C340.561,15.854,341.729,18.568,344.122,19.521z"/>
</g>
</svg>
