<?xml version="1.0" encoding="utf-8"?>
<!-- Generator: Adobe Illustrator 16.0.0, SVG Export Plug-In . SVG Version: 6.00 Build 0)  -->
<!DOCTYPE svg PUBLIC "-//W3C//DTD SVG 1.1//EN" "http://www.w3.org/Graphics/SVG/1.1/DTD/svg11.dtd">
<svg version="1.1" id="Capa_1" xmlns="http://www.w3.org/2000/svg" xmlns:xlink="http://www.w3.org/1999/xlink" x="0px" y="0px"
	 width="576px" height="288px" viewBox="0 0 576 288" enable-background="new 0 0 576 288" xml:space="preserve">
<g>
	<circle fill="#FFFFFF" cx="245.395" cy="84.768" r="4.596"/>
	<circle fill="#FFFFFF" cx="263.778" cy="66.385" r="4.596"/>
	<path fill="#FFFFFF" d="M246.272,159.194c4.935,9.526,14.676,15.444,25.422,15.444c3.763,0,7.446-0.735,10.947-2.186
		c1.897-0.785,3.689-1.762,5.358-2.918c1.668,1.156,3.459,2.133,5.358,2.918c3.502,1.45,7.185,2.186,10.947,2.186
		c10.748,0,20.49-5.919,25.426-15.45c2.831-5.476,27.739-53.718,30.49-61.332c8.685-24.03-3.018-50.518-26.643-60.303
		c-5.838-2.418-11.978-3.645-18.248-3.645c-8.165,0-16.195,2.126-23.283,6.074c-1.777-13.428-7.874-25.835-17.613-35.574
		c-1.795-1.794-4.705-1.794-6.5,0c-1.795,1.795-1.794,4.705,0,6.499c7.825,7.824,12.876,17.675,14.698,28.366
		c-6.758-3.493-14.301-5.366-21.964-5.366c-6.27,0-12.41,1.226-18.249,3.645c-23.623,9.785-35.326,36.272-26.643,60.301
		C218.528,105.469,243.439,153.715,246.272,159.194z M245.938,46.044c4.717-1.954,9.674-2.945,14.731-2.945
		c8.865,0,17.54,3.094,24.425,8.712c0.009,0.007,0.019,0.011,0.026,0.018c0.187,0.151,0.387,0.286,0.596,0.406
		c0.021,0.012,0.042,0.026,0.063,0.039c0.201,0.111,0.413,0.204,0.631,0.284c0.04,0.014,0.08,0.03,0.119,0.043
		c0.209,0.071,0.424,0.126,0.646,0.166c0.046,0.009,0.092,0.014,0.138,0.021c0.216,0.033,0.435,0.055,0.66,0.056
		c0.018,0,0.036,0,0.053,0c0.226-0.001,0.445-0.023,0.661-0.056c0.045-0.007,0.09-0.013,0.135-0.021
		c0.223-0.04,0.439-0.096,0.65-0.167c0.037-0.013,0.075-0.028,0.113-0.041c0.219-0.081,0.433-0.174,0.635-0.287
		c0.02-0.011,0.039-0.024,0.059-0.035c0.211-0.12,0.412-0.256,0.6-0.408c0.01-0.007,0.018-0.012,0.027-0.018
		c6.885-5.618,15.561-8.712,24.425-8.712c5.058,0,10.015,0.991,14.731,2.945c19.076,7.902,28.527,29.288,21.516,48.688
		c-2.155,5.962-22.395,45.503-30.01,60.232c-3.349,6.466-9.963,10.482-17.262,10.482c-2.55,0-5.051-0.5-7.431-1.486
		c-2.136-0.885-4.072-2.122-5.757-3.678c-0.88-0.813-1.999-1.221-3.118-1.221c-1.119,0-2.239,0.407-3.119,1.221
		c-1.684,1.556-3.621,2.793-5.757,3.678c-2.381,0.986-4.881,1.486-7.43,1.486c-7.299,0-13.913-4.017-17.26-10.479
		c-7.618-14.732-27.858-54.274-30.013-60.239C217.412,75.332,226.862,53.946,245.938,46.044z"/>
	<path fill="#FFFFFF" d="M304.572,236.855L288.486,224.6c-1.645-1.252-3.925-1.252-5.57,0l-13.301,10.134l-13.3-10.134
		c-1.645-1.252-3.925-1.252-5.57,0l-16.084,12.256c-2.019,1.539-2.408,4.422-0.87,6.441c1.538,2.019,4.422,2.408,6.441,0.87
		l13.297-10.134l13.299,10.134c1.646,1.253,3.925,1.254,5.57,0l13.302-10.134l13.302,10.134c0.831,0.634,1.811,0.94,2.781,0.94
		c1.385,0,2.756-0.624,3.659-1.811C306.98,241.277,306.592,238.394,304.572,236.855z"/>
	<path fill="#FFFFFF" d="M427.404,211.404c2.538,0,4.596-2.057,4.596-4.596v-18.383c0-2.538-2.058-4.596-4.596-4.596H148.596
		c-2.538,0-4.596,2.058-4.596,4.596v91.915c0,2.539,2.058,4.597,4.596,4.597h278.809c2.538,0,4.596-2.058,4.596-4.597v-18.383
		c0-2.538-2.058-4.596-4.596-4.596h-32.17v-9.191h32.17c2.538,0,4.596-2.058,4.596-4.596s-2.058-4.596-4.596-4.596h-32.17v-9.191
		h32.17c2.538,0,4.596-2.058,4.596-4.597c0-2.538-2.058-4.596-4.596-4.596h-32.17v-9.191H427.404z M335.489,220.596
		c-2.538,0-4.596,2.058-4.596,4.596v50.554H208.34v-82.724h122.553v13.787c0,2.539,2.058,4.596,4.596,4.596s4.596-2.057,4.596-4.596
		v-13.787h9.191v82.724h-9.191v-50.554C340.085,222.653,338.027,220.596,335.489,220.596z M199.149,275.745h-9.191v-82.724h9.191
		V275.745z M153.191,193.021h27.575v82.724h-27.575V193.021z M422.809,266.554v9.191h-64.34v-82.724h64.34v9.191h-27.574v-1.531
		c0-2.539-2.059-4.596-4.596-4.596c-2.539,0-4.596,2.057-4.596,4.596v67.404c0,2.539,2.057,4.596,4.596,4.596
		c2.537,0,4.596-2.057,4.596-4.596v-1.532H422.809z"/>
</g>
</svg>
