<?xml version="1.0" encoding="utf-8"?>
<!-- Generator: Adobe Illustrator 16.0.0, SVG Export Plug-In . SVG Version: 6.00 Build 0)  -->
<!DOCTYPE svg PUBLIC "-//W3C//DTD SVG 1.1//EN" "http://www.w3.org/Graphics/SVG/1.1/DTD/svg11.dtd">
<svg version="1.1" id="Capa_1" xmlns="http://www.w3.org/2000/svg" xmlns:xlink="http://www.w3.org/1999/xlink" x="0px" y="0px"
	 width="576px" height="288px" viewBox="0 0 576 288" enable-background="new 0 0 576 288" xml:space="preserve">
<g>
	<path fill="#FFFFFF" d="M192.972,207.987c17.255,0,33.119-10.185,40.439-25.646h3.936c2.538,0,4.596-2.058,4.596-4.596
		s-2.058-4.596-4.596-4.596h-88.751c-2.538,0-4.596,2.058-4.596,4.596s2.058,4.596,4.596,4.596h3.937
		C159.853,197.803,175.716,207.987,192.972,207.987z M222.924,182.341c-6.447,10.055-17.762,16.455-29.952,16.455
		s-23.504-6.4-29.952-16.455H222.924z"/>
	<path fill="#FFFFFF" d="M427.404,173.149h-88.751c-2.538,0-4.597,2.058-4.597,4.596s2.059,4.596,4.597,4.596h3.937
		c7.32,15.462,23.184,25.646,40.438,25.646c17.256,0,33.119-10.185,40.438-25.646h3.938c2.538,0,4.596-2.058,4.596-4.596
		S429.942,173.149,427.404,173.149z M383.028,198.796c-12.19,0-23.505-6.4-29.952-16.455h59.903
		C406.533,192.396,395.219,198.796,383.028,198.796z"/>
	<path fill="#FFFFFF" d="M402.896,277.187H379.38c-2.2-13.308-13.784-23.492-27.706-23.492h-2.926
		c-2.199-13.31-13.788-23.492-27.712-23.492h-28.44V56.324h84.051l-35.396,105.871c-0.804,2.407,0.494,5.011,2.901,5.815
		c2.408,0.807,5.012-0.494,5.816-2.901l33.061-98.886l33.061,98.886c0.643,1.925,2.435,3.14,4.357,3.14
		c0.483,0,0.975-0.076,1.458-0.238c2.407-0.805,3.706-3.408,2.901-5.815L389.41,56.324h7.532c2.538,0,4.596-2.058,4.596-4.596
		s-2.058-4.596-4.596-4.596H292.596V20.222h22.459c7.215,0,13.085,5.871,13.085,13.086c0,2.538,2.058,4.596,4.596,4.596h13.915
		c2.537,0,4.596-2.058,4.596-4.596s-2.059-4.596-4.596-4.596h-9.795c-2.124-10.086-11.093-17.682-21.801-17.682h-22.459V6.218
		c0-2.538-2.058-4.596-4.596-4.596s-4.596,2.058-4.596,4.596v4.812h-22.458c-10.708,0-19.677,7.596-21.801,17.682h-9.794
		c-2.538,0-4.596,2.058-4.596,4.596s2.058,4.596,4.596,4.596h13.915c2.538,0,4.596-2.058,4.596-4.596
		c0-7.215,5.87-13.086,13.085-13.086h22.458v26.911H179.058c-2.538,0-4.596,2.058-4.596,4.596s2.058,4.596,4.596,4.596h7.532
		l-35.396,105.871c-0.804,2.407,0.494,5.011,2.901,5.815c2.408,0.807,5.011-0.494,5.816-2.901l33.06-98.887l33.061,98.886
		c0.643,1.925,2.435,3.141,4.358,3.141c0.483,0,0.974-0.077,1.458-0.238c2.407-0.805,3.706-3.409,2.901-5.816l-35.396-105.87h84.051
		v173.878h-28.44c-13.923,0-25.512,10.183-27.712,23.492h-2.926c-13.922,0-25.505,10.185-27.706,23.492h-23.516
		c-2.538,0-4.596,2.058-4.596,4.596s2.058,4.596,4.596,4.596h229.792c2.538,0,4.596-2.058,4.596-4.596
		S405.435,277.187,402.896,277.187z M224.326,262.886h7.146c2.538,0,4.596-2.058,4.596-4.596c0-10.419,8.477-18.896,18.896-18.896
		h66.072c10.419,0,18.896,8.478,18.896,18.896c0,2.538,2.058,4.596,4.596,4.596h7.146c8.836,0,16.271,6.095,18.329,14.301H205.997
		C208.056,268.98,215.491,262.886,224.326,262.886z"/>
	<path fill="#FFFFFF" d="M326.146,253.694h-76.291c-2.538,0-4.596,2.058-4.596,4.596s2.058,4.596,4.596,4.596h76.291
		c2.538,0,4.596-2.058,4.596-4.596S328.684,253.694,326.146,253.694z"/>
</g>
</svg>
