<?xml version="1.0" encoding="utf-8"?>
<!-- Generator: Adobe Illustrator 16.0.0, SVG Export Plug-In . SVG Version: 6.00 Build 0)  -->
<!DOCTYPE svg PUBLIC "-//W3C//DTD SVG 1.1//EN" "http://www.w3.org/Graphics/SVG/1.1/DTD/svg11.dtd">
<svg version="1.1" id="Capa_1" xmlns="http://www.w3.org/2000/svg" xmlns:xlink="http://www.w3.org/1999/xlink" x="0px" y="0px"
	 width="576px" height="288px" viewBox="0 0 576 288" enable-background="new 0 0 576 288" xml:space="preserve">
<g>
	<path fill="#FFFFFF" d="M336.02,0.019H326.4H292.8h-144v81.629v96V259.2H168v28.166l19.2-12.796l19.2,12.796V259.2h86.4H326.4
		h9.619c10.574,0,19.181-8.606,19.181-19.181v-62.371v-96V19.2C355.2,8.625,346.594,0.019,336.02,0.019z M158.4,9.619h134.4v72.029
		H158.4V9.619z M292.8,168.048H158.4v-76.8h134.4V168.048z M196.8,269.434l-9.6-6.403l-9.6,6.403V259.2h19.2V269.434z M206.4,249.6
		H168h-9.6v-71.951h134.4V249.6H206.4z M302.4,249.6v-71.951v-96V9.619H316.8v72.029v96V249.6H302.4z M326.4,91.248H345.6v76.8
		H326.4V91.248z M345.6,240.02c0,5.279-4.301,9.58-9.58,9.58H326.4v-71.951H345.6V240.02z M326.4,81.648V9.619h9.619
		c5.279,0,9.58,4.296,9.58,9.581v62.448H326.4z"/>
	<path fill="#FFFFFF" d="M412.872,0h-19.339C385.627,0,379.2,6.427,379.2,14.328V33.6v28.8v178.877l19.2,33.6v8.323
		c0,2.654,2.146,4.8,4.8,4.8s4.8-2.146,4.8-4.8v-8.323l19.2-33.6V62.4V33.6V14.328C427.2,6.427,420.772,0,412.872,0z M388.8,43.2
		h28.8v9.6h-28.8V43.2z M403.2,263.924l-10.93-19.124h21.859L403.2,263.924z M417.6,235.2h-28.8V62.4h28.8V235.2z M388.8,33.6
		V14.328c0-2.606,2.122-4.728,4.728-4.728h19.34c2.611,0,4.732,2.122,4.732,4.728V33.6H388.8z"/>
</g>
</svg>
