<?xml version="1.0" encoding="utf-8"?>
<!-- Generator: Adobe Illustrator 16.0.0, SVG Export Plug-In . SVG Version: 6.00 Build 0)  -->
<!DOCTYPE svg PUBLIC "-//W3C//DTD SVG 1.1//EN" "http://www.w3.org/Graphics/SVG/1.1/DTD/svg11.dtd">
<svg version="1.1" id="Capa_1" xmlns="http://www.w3.org/2000/svg" xmlns:xlink="http://www.w3.org/1999/xlink" x="0px" y="0px"
	 width="576px" height="288px" viewBox="0 0 576 288" enable-background="new 0 0 576 288" xml:space="preserve">
<path fill="#FFFFFF" d="M431.923,53.686c0.02-0.115,0.053-0.23,0.062-0.346c0.034-0.354-0.005-0.714-0.048-1.074
	c-0.01-0.091,0.005-0.178-0.01-0.269c-0.086-0.475-0.244-0.94-0.479-1.386c-0.038-0.077-0.091-0.149-0.134-0.226
	c-0.01-0.009-0.01-0.024-0.015-0.038c-0.005-0.01-0.019-0.015-0.023-0.029c-0.034-0.053-0.062-0.11-0.097-0.158
	c-0.297-0.437-0.656-0.796-1.06-1.103c-0.091-0.067-0.196-0.105-0.292-0.168c-0.355-0.235-0.729-0.427-1.132-0.556
	c-0.178-0.058-0.354-0.086-0.537-0.12c-0.35-0.072-0.7-0.105-1.064-0.096c-0.191,0.005-0.374,0.015-0.565,0.043
	c-0.125,0.019-0.245,0-0.37,0.029l-278.333,57.521c-1.98,0.413-3.496,2.019-3.779,4.023c-0.283,2.004,0.719,3.971,2.508,4.915
	l79.751,42.067l13.987,77.617c-0.009,0.058,0.005,0.119,0,0.178c-0.048,0.383-0.053,0.758-0.005,1.136
	c0.024,0.192,0.048,0.374,0.096,0.562c0.11,0.455,0.288,0.882,0.527,1.285c0.048,0.076,0.048,0.168,0.101,0.244
	c0.015,0.023,0.039,0.043,0.058,0.062c0.062,0.091,0.149,0.163,0.221,0.254c0.225,0.278,0.46,0.532,0.729,0.748
	c0.043,0.033,0.072,0.086,0.12,0.12c0.072,0.053,0.153,0.067,0.226,0.114c0.292,0.192,0.594,0.351,0.916,0.476
	c0.13,0.048,0.25,0.105,0.384,0.144c0.432,0.125,0.877,0.211,1.328,0.211c0.005,0,0.01,0,0.015,0l0,0l0,0
	c0.019,0,0.038-0.01,0.057-0.01c0.082,0.005,0.163,0.01,0.245,0.01c1.328,0,2.527-0.595,3.414-1.51l53.124-35.417l55.623,36.155
	c0.786,0.508,1.697,0.771,2.613,0.771c0.504,0,1.017-0.082,1.51-0.244c1.381-0.461,2.484-1.525,2.988-2.896l67.111-182.159
	c0.062-0.163,0.115-0.331,0.158-0.503c0.019-0.072,0.023-0.144,0.038-0.211C431.904,53.8,431.914,53.743,431.923,53.686z
	 M376.387,84.292l-115.047,84.589c-0.187,0.14-0.335,0.312-0.499,0.476c-0.062,0.058-0.125,0.105-0.177,0.167
	c-0.101,0.111-0.192,0.221-0.283,0.341c-0.086,0.115-0.153,0.235-0.23,0.354c-0.177,0.288-0.326,0.586-0.441,0.902
	c-0.024,0.062-0.062,0.109-0.081,0.172c-0.005,0.02-0.024,0.029-0.029,0.049l-13.187,42.854l-10.448-57.978L376.387,84.292z
	 M253.845,223.42l13.071-43.174l20.351,13.229l5.821,3.784l-19.775,13.181L253.845,223.42z M393.553,64.724l-162.901,83.438
	L162.849,112.4L393.553,64.724z M357.662,227.783l-73.867-48.008l-11.187-7.273L417.197,66.186L357.662,227.783z"/>
</svg>
