<?xml version="1.0" encoding="utf-8"?>
<!-- Generator: Adobe Illustrator 16.0.0, SVG Export Plug-In . SVG Version: 6.00 Build 0)  -->
<!DOCTYPE svg PUBLIC "-//W3C//DTD SVG 1.1//EN" "http://www.w3.org/Graphics/SVG/1.1/DTD/svg11.dtd">
<svg version="1.1" id="Capa_1" xmlns="http://www.w3.org/2000/svg" xmlns:xlink="http://www.w3.org/1999/xlink" x="0px" y="0px"
	 width="576px" height="288px" viewBox="0 0 576 288" enable-background="new 0 0 576 288" xml:space="preserve">
<g>
	<path fill="#FFFFFF" d="M398.507,92.414h-62.469V75.949c0-7.284-5.926-13.21-13.21-13.21h-52.96c-7.284,0-13.21,5.926-13.21,13.21
		v16.464h-62.465c-2.49,0-4.508,2.018-4.508,4.508v142.426c0,2.49,2.018,4.508,4.508,4.508h204.314c2.49,0,4.508-2.018,4.508-4.508
		V96.921C403.015,94.432,400.997,92.414,398.507,92.414z M269.869,71.755h52.959c2.209,0,4.02,1.717,4.179,3.886H265.69
		C265.849,73.473,267.66,71.755,269.869,71.755z M265.675,84.657h61.347v7.756h-61.347V84.657z M393.998,101.43v108.316
		c-12.904,1.958-23.131,12.187-25.088,25.094H223.792c-1.958-12.908-12.185-23.137-25.091-25.094V101.43H393.998z M198.701,218.917
		c7.923,1.747,14.173,7.997,15.92,15.923h-15.92V218.917z M378.08,234.84c1.747-7.926,7.996-14.175,15.918-15.923v15.923H378.08z"/>
	<path fill="#FFFFFF" d="M431.775,90.338c-0.373-1.136-1.182-2.078-2.249-2.617l-65.649-33.207c-1.066-0.54-2.305-0.634-3.44-0.261
		c-1.136,0.373-2.077,1.182-2.617,2.249l-12.034,23.791c-1.124,2.222-0.233,4.934,1.988,6.058c2.221,1.124,4.934,0.234,6.057-1.988
		l10-19.769l57.604,29.137l-14.619,28.9c-1.124,2.222-0.234,4.934,1.988,6.058c0.652,0.33,1.347,0.486,2.031,0.486
		c1.646,0,3.232-0.904,4.026-2.474l16.654-32.923C432.055,92.711,432.147,91.474,431.775,90.338z"/>
	<path fill="#FFFFFF" d="M154.602,87.124l55.967-32.313l2.057,3.564l-49.928,28.827c-2.156,1.245-2.895,4.002-1.65,6.158
		l16.831,29.154c0.835,1.446,2.35,2.254,3.908,2.254c0.765,0,1.54-0.195,2.25-0.604c2.156-1.245,2.895-4.002,1.65-6.158
		l-14.577-25.25l55.903-32.275l14.567,25.234c1.244,2.156,4.001,2.895,6.158,1.65c2.156-1.245,2.895-4.002,1.65-6.158
		l-16.821-29.139c-0.598-1.036-1.583-1.791-2.737-2.101c-1.153-0.309-2.384-0.147-3.421,0.451l-5.974,3.45l-4.309-7.468
		c-0.598-1.036-1.583-1.791-2.737-2.102c-1.155-0.31-2.385-0.147-3.421,0.45l-63.711,36.784c-2.13,1.23-2.881,3.941-1.688,6.092
		l33.869,61.013c0.824,1.484,2.361,2.32,3.946,2.32c0.74,0,1.49-0.183,2.184-0.566c2.177-1.209,2.962-3.953,1.754-6.13
		L154.602,87.124z"/>
</g>
</svg>
