<?xml version="1.0" encoding="utf-8"?>
<!-- Generator: Adobe Illustrator 16.0.0, SVG Export Plug-In . SVG Version: 6.00 Build 0)  -->
<!DOCTYPE svg PUBLIC "-//W3C//DTD SVG 1.1//EN" "http://www.w3.org/Graphics/SVG/1.1/DTD/svg11.dtd">
<svg version="1.1" id="Capa_1" xmlns="http://www.w3.org/2000/svg" xmlns:xlink="http://www.w3.org/1999/xlink" x="0px" y="0px"
	 width="576px" height="288px" viewBox="0 0 576 288" enable-background="new 0 0 576 288" xml:space="preserve">
<g>
	<path fill="#FFFFFF" d="M422.75,119.254h-3.122V62.071c0-3.106-2.519-5.625-5.626-5.625h-30.374c-3.106,0-5.626,2.519-5.626,5.625
		v57.183h-33.248c-3.105,0-5.625,2.519-5.625,5.625c0,3.107,2.52,5.625,5.625,5.625h72.371v6.75h-72.371
		c-3.105,0-5.625,2.519-5.625,5.625c0,3.106,2.52,5.625,5.625,5.625h55.188v11.242h-57.258c-3.107,0-5.626,2.52-5.626,5.625
		c0,3.107,2.519,5.625,5.626,5.625h57.258v111.377c0,3.106,2.519,5.625,5.625,5.625c3.107,0,5.626-2.519,5.626-5.625V148.506h11.558
		c3.106,0,5.625-2.52,5.625-5.625v-18.001C428.375,121.773,425.856,119.254,422.75,119.254z M389.253,119.254V67.697h19.124v51.558
		H389.253z"/>
	<path fill="#FFFFFF" d="M233.325,159.748h-57.259v-11.242h55.187c3.106,0,5.625-2.52,5.625-5.625c0-3.107-2.519-5.625-5.625-5.625
		h-72.377v-6.75h72.377c3.106,0,5.625-2.519,5.625-5.625c0-3.106-2.519-5.625-5.625-5.625h-33.247V62.071
		c0-3.106-2.519-5.625-5.625-5.625h-30.375c-3.106,0-5.625,2.519-5.625,5.625v57.183h-3.13c-3.107,0-5.625,2.519-5.625,5.625v18.001
		c0,3.106,2.519,5.625,5.625,5.625h11.565v133.869c0,3.106,2.519,5.625,5.625,5.625s5.625-2.519,5.625-5.625V170.998h57.259
		c3.106,0,5.625-2.518,5.625-5.625C238.951,162.268,236.432,159.748,233.325,159.748z M167.631,67.697h19.124v51.558h-19.124V67.697
		z"/>
	<path fill="#FFFFFF" d="M324.129,191.251h-30.5v-6.749h12.715c15.01,0,27.222-12.213,27.222-27.223V93.6
		c0-15.01-12.212-27.222-27.222-27.222h-36.681c-15.01,0-27.222,12.212-27.222,27.222v63.68c0,15.01,12.212,27.223,27.222,27.223
		h12.715v6.749h-30.5c-5.824,0-10.562,4.737-10.562,10.562c0,12.166,9.897,22.064,22.063,22.064h18.999v52.873h-19.125
		c-3.106,0-5.625,2.52-5.625,5.625c0,3.107,2.519,5.626,5.625,5.626h49.5c3.106,0,5.626-2.519,5.626-5.626
		c0-3.105-2.52-5.625-5.626-5.625h-19.124v-29.323h4.549c3.107,0,5.625-2.519,5.625-5.626c0-3.105-2.518-5.625-5.625-5.625h-4.549
		v-12.299h18.999c12.165,0,22.063-9.898,22.063-22.064C334.691,195.99,329.952,191.251,324.129,191.251z M253.691,157.279V93.6
		c0-8.807,7.165-15.972,15.972-15.972h36.681c8.807,0,15.972,7.165,15.972,15.972v63.68c0,8.807-7.165,15.972-15.972,15.972h-36.681
		C260.856,173.251,253.691,166.086,253.691,157.279z M312.627,212.626h-49.248c-5.731,0-10.435-4.481-10.792-10.124h70.831
		C323.062,208.145,318.357,212.626,312.627,212.626z"/>
	<path fill="#FFFFFF" d="M182.391,102.575c-0.878-2.125-3.038-3.526-5.336-3.471c-2.368,0.057-4.493,1.653-5.214,3.905
		c-1.572,4.904,4.003,9.208,8.357,6.465C182.499,108.024,183.395,105.086,182.391,102.575
		C182.249,102.23,182.526,102.913,182.391,102.575z"/>
	<path fill="#FFFFFF" d="M182.383,80.074c-0.904-2.264-3.326-3.69-5.744-3.445c-2.44,0.249-4.479,2.089-4.959,4.494
		c-0.945,4.729,4.391,8.421,8.488,5.872C182.463,85.568,183.439,82.574,182.383,80.074
		C182.249,79.737,182.526,80.412,182.383,80.074z"/>
	<path fill="#FFFFFF" d="M404.009,102.575c-0.282-0.685-0.699-1.3-1.215-1.83c-2.049-1.992-5.317-2.189-7.547-0.368
		c-2.253,1.839-2.694,5.209-1.028,7.584c1.587,2.265,4.685,3.022,7.149,1.772C403.938,108.429,405.136,105.242,404.009,102.575
		C403.866,102.23,404.151,102.913,404.009,102.575z"/>
	<path fill="#FFFFFF" d="M404.009,80.074c-0.288-0.685-0.696-1.296-1.215-1.83c-3.61-3.509-9.913-0.78-9.587,4.332
		c0.284,4.487,5.684,6.843,9.176,3.996C404.273,85.031,404.96,82.326,404.009,80.074C403.866,79.737,404.151,80.412,404.009,80.074z
		"/>
	<path fill="#FFFFFF" d="M342.332,77.628c-3.106,0-5.625,2.519-5.625,5.625c0,3.107,2.519,5.625,5.625,5.625h19.358v6.75h-18.608
		c-3.106,0-5.625,2.519-5.625,5.625c0,3.106,2.519,5.625,5.625,5.625h24.233c3.106,0,5.625-2.519,5.625-5.625V5.625
		c0-3.106-2.519-5.625-5.625-5.625H208.692c-3.106,0-5.625,2.519-5.625,5.625v95.629c0,3.106,2.519,5.625,5.625,5.625h24.233
		c3.107,0,5.625-2.519,5.625-5.625c0-3.107-2.519-5.625-5.625-5.625h-18.608v-6.75h19.358c3.107,0,5.625-2.519,5.625-5.625
		c0-3.106-2.519-5.625-5.625-5.625h-19.358V11.25H361.69v66.377H342.332z"/>
</g>
</svg>
